<mxfile host="Electron" modified="2025-03-27T09:59:36.090Z" agent="Mozilla/5.0 (Windows NT 10.0; Win64; x64) AppleWebKit/537.36 (KHTML, like Gecko) draw.io/24.5.3 Chrome/124.0.6367.207 Electron/30.0.6 Safari/537.36" etag="JZsGxn9qLFhE06l06MOE" version="24.5.3" type="device">
  <diagram name="Seite-1" id="tQ0ftKxHk6KphrgHs4fO">
    <mxGraphModel dx="932" dy="411" grid="1" gridSize="10" guides="1" tooltips="1" connect="1" arrows="1" fold="1" page="1" pageScale="1" pageWidth="827" pageHeight="1169" math="0" shadow="0">
      <root>
        <mxCell id="0" />
        <mxCell id="1" parent="0" />
        <mxCell id="m0PQreRef5mGNc5vd1aa-3" value="&lt;i&gt;&quot;Die Dinge richtig tun.&quot;&lt;/i&gt;" style="text;html=1;align=center;verticalAlign=middle;whiteSpace=wrap;rounded=0;fillColor=#f5f5f5;strokeColor=#666666;fontColor=#333333;" parent="1" vertex="1">
          <mxGeometry x="440" y="440" width="80" height="80" as="geometry" />
        </mxCell>
        <mxCell id="m0PQreRef5mGNc5vd1aa-8" value="&lt;font style=&quot;font-size: 24px;&quot;&gt;&lt;i&gt;&quot;Die richtigen Dinge tun.&quot;&lt;/i&gt;&lt;/font&gt;" style="text;html=1;align=center;verticalAlign=middle;whiteSpace=wrap;rounded=0;fillColor=#d5e8d4;strokeColor=#82b366;" parent="1" vertex="1">
          <mxGeometry x="240" y="400" width="160" height="160" as="geometry" />
        </mxCell>
        <mxCell id="_CtSmAOEaRtlOScSBnI4-1" value="&lt;span style=&quot;color: rgb(32, 33, 34); font-family: sans-serif; font-size: 16.8px; background-color: rgb(248, 249, 250);&quot;&gt;≫&lt;/span&gt;" style="text;html=1;align=center;verticalAlign=middle;whiteSpace=wrap;rounded=0;" vertex="1" parent="1">
          <mxGeometry x="405" y="465" width="30" height="30" as="geometry" />
        </mxCell>
        <mxCell id="_CtSmAOEaRtlOScSBnI4-2" value="Effektivität" style="text;html=1;align=center;verticalAlign=middle;whiteSpace=wrap;rounded=0;" vertex="1" parent="1">
          <mxGeometry x="290" y="400" width="60" height="30" as="geometry" />
        </mxCell>
        <mxCell id="_CtSmAOEaRtlOScSBnI4-3" value="Effizienz" style="text;html=1;align=center;verticalAlign=middle;whiteSpace=wrap;rounded=0;" vertex="1" parent="1">
          <mxGeometry x="450" y="435" width="60" height="30" as="geometry" />
        </mxCell>
      </root>
    </mxGraphModel>
  </diagram>
</mxfile>
